<?xml version="1.0" standalone="no"?><!DOCTYPE svg PUBLIC "-//W3C//DTD SVG 1.1//EN" "http://www.w3.org/Graphics/SVG/1.1/DTD/svg11.dtd"><svg t="1664422651057" class="icon" viewBox="0 0 1024 1024" version="1.1" xmlns="http://www.w3.org/2000/svg" p-id="3249" xmlns:xlink="http://www.w3.org/1999/xlink" width="200" height="200"><path d="M535.253333 255.274667a170.666667 170.666667 0 0 0 234.154667 233.045333c-51.2-23.850667-104.618667-61.866667-138.24-95.488-34.048-34.048-72.149333-87.04-95.914667-137.557333z m65.706667-63.829334c12.928 40.277333 57.301333 107.818667 90.538667 141.056 32.682667 32.682667 99.072 76.074667 141.44 89.813334a170.666667 170.666667 0 0 0-231.936-230.869334z m-9.173333 389.290667a256.768 256.768 0 0 1-148.522667-148.522667l-259.84 373.504 34.858667 34.858667 373.504-259.84z m129.834666 13.653333L208.384 951.424l-135.808-135.808L429.653333 302.378667A256.042667 256.042667 0 0 1 938.666667 341.333333a256.042667 256.042667 0 0 1-217.045334 253.056z" p-id="3250"></path></svg>