<?xml version="1.0" standalone="no"?><!DOCTYPE svg PUBLIC "-//W3C//DTD SVG 1.1//EN" "http://www.w3.org/Graphics/SVG/1.1/DTD/svg11.dtd"><svg t="1663317526358" class="icon" viewBox="0 0 1024 1024" version="1.1" xmlns="http://www.w3.org/2000/svg" p-id="3148" xmlns:xlink="http://www.w3.org/1999/xlink" width="200" height="200"><path d="M512 774.4l293.888-280.32a166.613333 166.613333 0 0 0 0-232.832 158.976 158.976 0 0 0-227.456 0L512 328.661333l-66.432-67.413333a158.976 158.976 0 0 0-227.456 0 166.613333 166.613333 0 0 0 0 232.832L512 774.4z m0-567.338667l5.632-5.717333a244.309333 244.309333 0 0 1 349.056 0c96 97.450667 96 255.146667 0 352.597333L512 896l-354.688-342.058667c-96-97.408-96-255.146667 0-352.597333a244.309333 244.309333 0 0 1 349.056 0l5.632 5.717333z" p-id="3149"></path></svg>