<?xml version="1.0" standalone="no"?><!DOCTYPE svg PUBLIC "-//W3C//DTD SVG 1.1//EN" "http://www.w3.org/Graphics/SVG/1.1/DTD/svg11.dtd"><svg t="1661864146106" class="icon" viewBox="0 0 1024 1024" version="1.1" xmlns="http://www.w3.org/2000/svg" p-id="2372" xmlns:xlink="http://www.w3.org/1999/xlink" width="32" height="32"><path d="M512 981.333333a469.333333 469.333333 0 1 1 469.333333-469.333333 469.333333 469.333333 0 0 1-469.333333 469.333333z m0-853.333333a384 384 0 1 0 384 384 384 384 0 0 0-384-384z" p-id="2373"></path><path d="M426.666667 725.333333a42.666667 42.666667 0 0 1-42.666667-42.666666V341.333333a42.666667 42.666667 0 0 1 85.333333 0v341.333334a42.666667 42.666667 0 0 1-42.666666 42.666666zM597.333333 725.333333a42.666667 42.666667 0 0 1-42.666666-42.666666V341.333333a42.666667 42.666667 0 0 1 85.333333 0v341.333334a42.666667 42.666667 0 0 1-42.666667 42.666666z" p-id="2374"></path></svg>