<?xml version="1.0" standalone="no"?><!DOCTYPE svg PUBLIC "-//W3C//DTD SVG 1.1//EN" "http://www.w3.org/Graphics/SVG/1.1/DTD/svg11.dtd"><svg t="1661919552233" class="icon" viewBox="0 0 1024 1024" version="1.1" xmlns="http://www.w3.org/2000/svg" p-id="1986" xmlns:xlink="http://www.w3.org/1999/xlink" width="200" height="200"><path d="M608.9 288H225.6c-17.6 0-31.9-14.3-31.9-32s14.3-32 31.9-32H609c17.6 0 31.9 14.3 31.9 32s-14.3 32-32 32zM608.9 480H225.6c-17.6 0-31.9-14.3-31.9-32s14.3-32 31.9-32H609c17.6 0 31.9 14.3 31.9 32s-14.3 32-32 32zM417.3 672H225.6c-17.6 0-31.9-14.3-31.9-32s14.3-32 31.9-32h191.7c17.6 0 31.9 14.3 31.9 32s-14.3 32-31.9 32zM736.6 576c42.6 0 82.7 16.6 112.8 46.9 30.1 30.2 46.7 70.4 46.7 113.1s-16.6 82.9-46.7 113.1c-30.1 30.2-70.2 46.9-112.8 46.9-42.6 0-82.7-16.6-112.8-46.9-30.1-30.2-46.7-70.4-46.7-113.1s16.6-82.9 46.7-113.1C653.9 592.6 694 576 736.6 576m0-64c-123.4 0-223.4 100.3-223.4 224s100 224 223.4 224S960 859.7 960 736 860 512 736.6 512z" p-id="1987"></path><path d="M159.7 832c-17.6 0-31.9-14.3-31.9-32V160c0-17.7 14.3-32 31.9-32h513.6c17.6 0 31.9 14.3 31.9 32v256c0 17.7 14.3 32 31.9 32 17.6 0 31.9-14.3 31.9-32V128c0-35.3-28.6-64-63.8-64H127.8C92.6 64 64 92.7 64 128v704c0 35.3 28.6 64 63.8 64h353.5c17.6 0 31.9-14.3 31.9-32s-14.3-32-31.9-32H159.7zM812.9 719l-100.1-57.8c-13.2-7.6-29.6 1.9-29.6 17.1v115.6c0 15.2 16.5 24.7 29.6 17.1l100.1-57.8c13.1-7.6 13.1-26.6 0-34.2z" p-id="1988"></path></svg>