<?xml version="1.0" standalone="no"?><!DOCTYPE svg PUBLIC "-//W3C//DTD SVG 1.1//EN" "http://www.w3.org/Graphics/SVG/1.1/DTD/svg11.dtd"><svg t="1664177627663" class="icon" viewBox="0 0 1024 1024" version="1.1" xmlns="http://www.w3.org/2000/svg" p-id="3129" xmlns:xlink="http://www.w3.org/1999/xlink" width="200" height="200"><path d="M939.072 434.496C919.744 403.392 886.272 384 851.904 382.976L638.848 381.952c14.208-41.024 21.376-83.776 21.376-127.04 0-21.504-1.856-43.52-5.952-67.264l-3.968-17.152C638.976 121.344 595.84 86.912 545.28 86.912c-59.456 0-107.84 48.384-107.84 107.904 0 3.456 0.128 6.848 0.448 9.664C434.944 310.016 307.904 418.944 264.704 418.944c0 0 0 0-0.064 0L106.368 419.008c-20.672 0-37.504 16.896-37.504 37.568l-0.384 442.88c0 20.992 18.176 36.288 40.96 36.928l137.216-0.256 5.248 0.96 4.608-0.64 522.24 0.192c18.368-1.28 36.096-6.976 51.456-16.768 16.64-10.688 30.08-25.728 36.16-38.976l6.4-10.624c35.968-85.632 79.872-347.968 81.664-359.04l0.704-10.624C956.928 477.056 951.36 454.208 939.072 434.496zM132.864 483.328 218.24 483.2l0 389.312-85.696 0.256L132.864 483.328zM815.744 841.6l-4.032 6.4c-3.648 7.36-9.216 13.568-16 17.92-6.208 3.968-13.568 6.336-19.136 6.72L282.24 872.448 282.24 479.808C366.656 463.36 498.24 334.336 501.824 201.344L501.44 194.816c0-24.192 19.648-43.904 43.84-43.904 20.544 0 38.08 13.952 42.688 33.984l3.584 15.232c3.136 18.368 4.672 36.736 4.672 54.656 0 36.352-6.08 72.256-18.112 106.624L548.672 445.824l291.456 0.064 6.912 0.704c15.488 0.576 29.568 8.704 37.696 21.76 5.056 8.128 7.36 17.6 6.592 32.384C890.88 503.296 846.848 766.656 815.744 841.6z" p-id="3130"></path></svg>