<?xml version="1.0" standalone="no"?><!DOCTYPE svg PUBLIC "-//W3C//DTD SVG 1.1//EN" "http://www.w3.org/Graphics/SVG/1.1/DTD/svg11.dtd"><svg t="1662269604959" class="icon" viewBox="0 0 1024 1024" version="1.1" xmlns="http://www.w3.org/2000/svg" p-id="3145" xmlns:xlink="http://www.w3.org/1999/xlink" width="200" height="200"><path d="M513 899.818c-121.957 0-236.935-13.875-323.751-39.068-43.706-12.684-78.422-27.729-103.186-44.72C55.498 795.06 40 771.098 40 744.811c0-18.837 8.099-36.675 24.071-53.019 12.954-13.255 31.402-25.659 54.831-36.867 12.455-5.96 27.383-0.691 33.341 11.763 5.959 12.455 0.692 27.383-11.763 33.341C103.261 717.835 90 734.837 90 744.811c0 13.027 23.838 41.992 113.184 67.92 82.415 23.917 192.443 37.088 309.816 37.088 117.373 0 227.401-13.171 309.816-37.088C912.162 786.803 936 757.838 936 744.811c0-9.8-12.894-26.534-49.081-44.107-12.42-6.031-17.6-20.989-11.567-33.409 6.029-12.42 20.984-17.603 33.409-11.567 22.947 11.144 41.012 23.459 53.693 36.606C978.078 708.529 986 726.186 986 744.811c0 26.287-15.498 50.249-46.062 71.22-24.764 16.99-59.48 32.036-103.187 44.72-86.816 25.192-201.794 39.067-323.751 39.067z" p-id="3146"></path><path d="M513.825 900.021c-94.254 0-184.853-8.303-262.002-24.011-13.529-2.754-22.264-15.955-19.51-29.484 2.755-13.529 15.957-22.264 29.485-19.51 73.919 15.05 161.068 23.005 252.026 23.005 90.139 0 176.64-7.823 250.151-22.625 13.531-2.732 26.718 6.038 29.442 19.573 2.726 13.535-6.038 26.718-19.573 29.442-76.705 15.446-166.619 23.61-260.019 23.61z" p-id="3147"></path><path d="M655.729 769.396H270.855c-19.529 0-35.573-15.208-36.91-34.403l-70.09-424.371v-2.051c0-20.402 16.598-37 37-37h544.874c20.402 0 37 16.598 37 37v2.625l-0.545 2.568-89.603 421.952c-1.685 18.852-17.57 33.68-36.852 33.68z m-373.683-50h362.885l84.479-397.825H216.341l65.705 397.825z" p-id="3148"></path><path d="M719.046 696.255c-14.826 0-29.549-1.93-43.76-5.734-13.338-3.571-21.255-17.278-17.684-30.615 3.571-13.338 17.276-21.255 30.615-17.684a119.237 119.237 0 0 0 30.828 4.033c65.49 0 118.771-53.279 118.771-118.77 0-28.495-10.24-56.046-28.834-77.579-18.413-21.324-43.783-35.445-71.435-39.763-13.643-2.13-22.975-14.916-20.845-28.558 2.131-13.642 14.913-22.975 28.558-20.844 39.347 6.144 75.416 26.204 101.565 56.486 26.433 30.611 40.99 69.768 40.99 110.257 0.001 93.061-75.709 168.771-168.769 168.771zM727.198 223.028c-68.099 0-94.502-21.897-115.718-39.493-17.89-14.837-30.816-25.557-72.702-25.557-48.055 0-68.328 15.002-89.791 30.885-21.007 15.545-44.817 33.165-88.174 33.165-53.891 0-93.74-26.824-122.837-46.409-10.323-6.949-25.923-17.45-31.151-17.641-13.807 0-24.99-11.193-24.99-25s11.203-25 25.01-25c20.185 0 38.196 12.124 59.051 26.162 26.383 17.759 56.287 37.888 94.917 37.888 26.869 0 40.108-9.797 58.432-23.357 24.5-18.13 54.99-40.693 119.533-40.693 59.922 0 83.669 19.695 104.621 37.071 18.103 15.013 33.735 27.979 83.799 27.979 13.807 0 25 11.193 25 25s-11.193 25-25 25z" p-id="3149"></path><path d="M656.134 769.261H553.223c-13.808 0-25-11.193-25-25 0-13.808 11.192-25 25-25h92.114l84.479-397.825H595.203c-13.808 0-25-11.193-25-25s11.192-25 25-25h150.931c20.401 0 37 16.598 37 37v2.625l-0.545 2.568-89.603 421.952c-1.685 18.852-17.57 33.68-36.852 33.68z" p-id="3150"></path></svg>