<?xml version="1.0" standalone="no"?><!DOCTYPE svg PUBLIC "-//W3C//DTD SVG 1.1//EN" "http://www.w3.org/Graphics/SVG/1.1/DTD/svg11.dtd"><svg t="1662269598129" class="icon" viewBox="0 0 1024 1024" version="1.1" xmlns="http://www.w3.org/2000/svg" p-id="2867" xmlns:xlink="http://www.w3.org/1999/xlink" width="200" height="200"><path d="M783.36 51.2c104.448 0 189.44 84.992 189.44 189.44s-84.992 189.44-189.44 189.44h-184.32c-3.072 0-5.632-2.56-5.632-5.632V240.64c0-104.448 85.504-189.44 189.952-189.44m0-51.2c-133.12 0-240.64 107.52-240.64 240.64v184.32c0 31.232 25.6 56.832 56.832 56.832h184.32c133.12 0 240.64-107.52 240.64-240.64S915.968 0 783.36 0zM240.64 51.2c104.448 0 189.44 84.992 189.44 189.44v184.32c0 3.072-2.56 5.632-5.632 5.632H240.64c-104.448 0-189.44-84.992-189.44-189.44S136.192 51.2 240.64 51.2m0-51.2C108.032 0 0 107.52 0 240.64s108.032 240.64 240.64 240.64h184.32c31.232 0 56.832-25.6 56.832-56.832V240.64C481.792 107.52 373.76 0 240.64 0zM783.36 593.408c104.448 0 189.44 84.992 189.44 189.44s-84.992 189.44-189.44 189.44-189.44-84.992-189.44-189.44v-184.32c0-3.072 2.56-5.632 5.632-5.632H783.36m0-50.688h-184.32c-31.232 0-56.832 25.6-56.832 56.832v184.32c0 133.12 108.032 240.64 240.64 240.64s240.64-107.52 240.64-240.64-107.52-241.152-240.128-241.152zM424.96 593.408c3.072 0 5.632 2.56 5.632 5.632v184.32c0 104.448-84.992 189.44-189.44 189.44s-189.44-84.992-189.44-189.44 84.992-189.44 189.44-189.44l183.808-0.512m0-51.2H240.64c-133.12 0-240.64 107.52-240.64 240.64s108.032 240.64 240.64 240.64 240.64-107.52 240.64-240.64v-184.32c0.512-30.72-25.088-56.32-56.32-56.32z" p-id="2868"></path></svg>