<?xml version="1.0" standalone="no"?><!DOCTYPE svg PUBLIC "-//W3C//DTD SVG 1.1//EN" "http://www.w3.org/Graphics/SVG/1.1/DTD/svg11.dtd"><svg t="1662109406943" class="icon" viewBox="0 0 1025 1024" version="1.1" xmlns="http://www.w3.org/2000/svg" p-id="2425" xmlns:xlink="http://www.w3.org/1999/xlink" width="200.1953125" height="200"><path d="M949.261404 355.820706a55.444665 55.444665 0 0 0-53.007536-4.264974L792.06664 397.04879v-68.848869a116.98215 116.98215 0 0 0-116.779056-116.779056H172.629909a116.98215 116.98215 0 0 0-116.779056 116.779056v379.379611a116.98215 116.98215 0 0 0 116.779056 116.779056h503.063863A116.98215 116.98215 0 0 0 792.06664 707.579532v-68.84887l103.781039 45.493059a55.038477 55.038477 0 0 0 22.543436 4.874256 56.866323 56.866323 0 0 0 30.464101-9.13923A55.850853 55.850853 0 0 0 974.85125 633.04403V402.735422a55.850853 55.850853 0 0 0-25.589846-46.914716z m-187.252677 351.758826a86.518048 86.518048 0 0 1-86.314955 86.314954H172.629909a86.518048 86.518048 0 0 1-86.314955-86.314954V328.199921a86.518048 86.518048 0 0 1 86.314955-86.314955h503.063863a86.518048 86.518048 0 0 1 86.314955 86.314955z m182.784609-74.535502a24.980563 24.980563 0 0 1-11.576359 20.309401 24.574375 24.574375 0 0 1-23.965093 2.03094L801.612059 609.282031a7.717572 7.717572 0 0 1-4.468069-6.905196v-174.051567l111.295518-48.945657a25.589845 25.589845 0 0 1 35.744546 23.355811z" p-id="2426"></path><path d="M598.721142 358.257834a76.97263 76.97263 0 1 0 76.97263 76.97263 76.97263 76.97263 0 0 0-76.97263-76.97263z m0 123.481158a46.508528 46.508528 0 1 1 46.508529-46.508528 46.508528 46.508528 0 0 1-46.508529 46.508528z" p-id="2427"></path></svg>